<svg width="12" height="10" viewBox="0 0 12 10" fill="none" xmlns="http://www.w3.org/2000/svg">
<path fill-rule="evenodd" clip-rule="evenodd" d="M9.40091 2.59025C9.14883 2.14601 8.67157 1.8463 8.12431 1.8463H6.65753L5.40555 0.594322C5.26801 0.456784 5.08147 0.379517 4.88697 0.379517H2.25719C1.44711 0.379517 0.790405 1.03622 0.790405 1.8463V7.71342C0.790405 8.5235 1.44711 9.1802 2.25719 9.1802H8.8577C8.85944 9.1802 8.86118 9.18019 8.86292 9.18018H9.33559C9.99842 9.18018 10.5789 8.73566 10.7517 8.09574L11.7389 4.43937C11.9906 3.50714 11.2884 2.59025 10.3228 2.59025H9.40091ZM3.24603 4.05703L2.25881 7.7134L9.33559 7.7134L10.3228 4.05703H3.24603Z" fill="white"/>
</svg>
