<svg width="25" height="25" viewBox="0 0 25 25" fill="none" xmlns="http://www.w3.org/2000/svg">
<path d="M9.54547 18.6781C9.54547 18.76 9.45088 18.8255 9.3316 18.8255C9.19588 18.8378 9.10128 18.7723 9.10128 18.6781C9.10128 18.5962 9.19588 18.5307 9.31515 18.5307C9.43854 18.5184 9.54547 18.5839 9.54547 18.6781ZM8.26636 18.4939C8.23757 18.5757 8.31983 18.6699 8.44322 18.6945C8.55015 18.7354 8.67354 18.6945 8.69822 18.6126C8.72289 18.5307 8.64475 18.4365 8.52136 18.3997C8.41443 18.371 8.29515 18.412 8.26636 18.4939ZM10.0843 18.4243C9.96499 18.4529 9.88273 18.5307 9.89507 18.6249C9.90741 18.7068 10.0143 18.76 10.1377 18.7313C10.257 18.7027 10.3393 18.6249 10.3269 18.543C10.3146 18.4652 10.2035 18.412 10.0843 18.4243ZM12.7906 2.73517C7.08596 2.73517 2.72217 7.04639 2.72217 12.7251C2.72217 17.2656 5.59297 21.151 9.69354 22.5185C10.22 22.6127 10.4051 22.2892 10.4051 22.0231C10.4051 21.7692 10.3927 20.369 10.3927 19.5092C10.3927 19.5092 7.5137 20.1234 6.9091 18.2891C6.9091 18.2891 6.44023 17.0977 5.76572 16.7907C5.76572 16.7907 4.82386 16.1479 5.83152 16.1601C5.83152 16.1601 6.85564 16.242 7.4191 17.2165C8.31983 18.7968 9.82927 18.3424 10.4174 18.0722C10.512 17.4171 10.7793 16.9626 11.0755 16.6924C8.77636 16.4386 6.45668 16.1069 6.45668 12.1683C6.45668 11.0424 6.76927 10.4774 7.42733 9.75677C7.32039 9.49065 6.9708 8.39339 7.53427 6.97679C8.39386 6.71067 10.3722 8.08223 10.3722 8.08223C11.1947 7.85296 12.079 7.73422 12.9551 7.73422C13.8311 7.73422 14.7154 7.85296 15.538 8.08223C15.538 8.08223 17.5163 6.70657 18.3759 6.97679C18.9393 8.39749 18.5898 9.49065 18.4828 9.75677C19.1409 10.4815 19.5439 11.0465 19.5439 12.1683C19.5439 16.1192 17.1214 16.4345 14.8223 16.6924C15.2007 17.0158 15.5215 17.63 15.5215 18.5921C15.5215 19.9719 15.5092 21.6792 15.5092 22.0149C15.5092 22.281 15.6984 22.6045 16.2207 22.5103C20.3336 21.151 23.1222 17.2656 23.1222 12.7251C23.1222 7.04639 18.4952 2.73517 12.7906 2.73517ZM6.71991 16.8562C6.66644 16.8971 6.67878 16.9913 6.7487 17.0691C6.81451 17.1346 6.9091 17.1632 6.96257 17.11C7.01604 17.0691 7.0037 16.9749 6.93378 16.8971C6.86797 16.8316 6.77338 16.8029 6.71991 16.8562ZM6.27572 16.5245C6.24693 16.5778 6.28805 16.6433 6.37031 16.6842C6.43612 16.7252 6.51838 16.7129 6.54717 16.6555C6.57596 16.6023 6.53483 16.5368 6.45257 16.4959C6.37031 16.4713 6.30451 16.4836 6.27572 16.5245ZM7.6083 17.9821C7.54249 18.0353 7.56717 18.1581 7.66177 18.2359C7.75636 18.3301 7.87564 18.3424 7.9291 18.2769C7.98257 18.2236 7.95789 18.1008 7.87564 18.023C7.78515 17.9289 7.66177 17.9166 7.6083 17.9821ZM7.13943 17.3802C7.07362 17.4212 7.07362 17.5276 7.13943 17.6218C7.20523 17.716 7.31628 17.7569 7.36975 17.716C7.43556 17.6627 7.43556 17.5563 7.36975 17.4621C7.31217 17.3679 7.20523 17.327 7.13943 17.3802Z" fill="white"/>
</svg>
