<svg width="25" height="25" viewBox="0 0 25 25" fill="none" xmlns="http://www.w3.org/2000/svg">
<path fill-rule="evenodd" clip-rule="evenodd" d="M12.4222 6.24622C12.4222 7.45569 11.5633 8.46457 10.4222 8.69621V9.77368C11.5375 9.89697 12.5299 10.4278 13.2473 11.214L16.8364 7.62491C16.5746 7.22969 16.4222 6.75576 16.4222 6.24622C16.4222 4.8655 17.5415 3.74622 18.9222 3.74622C20.3029 3.74622 21.4222 4.8655 21.4222 6.24622C21.4222 7.62693 20.3029 8.74622 18.9222 8.74622C18.4126 8.74622 17.9387 8.59378 17.5435 8.33202L13.8417 12.0338C14.2112 12.6871 14.4222 13.442 14.4222 14.2462C14.4222 15.0468 14.2131 15.7985 13.8466 16.4498L15.1164 17.5173C15.5714 17.0421 16.2123 16.7462 16.9222 16.7462C18.3029 16.7462 19.4222 17.8655 19.4222 19.2462C19.4222 20.6269 18.3029 21.7462 16.9222 21.7462C15.5415 21.7462 14.4222 20.6269 14.4222 19.2462C14.4222 18.9388 14.4777 18.6443 14.5792 18.3722L13.2607 17.2636C12.4372 18.1741 11.2465 18.7462 9.92218 18.7462C7.4369 18.7462 5.42218 16.7315 5.42218 14.2462C5.42218 11.9299 7.1722 10.0224 9.42218 9.77368V8.69621C8.28106 8.46457 7.42218 7.45569 7.42218 6.24622C7.42218 4.8655 8.54147 3.74622 9.92218 3.74622C11.3029 3.74622 12.4222 4.8655 12.4222 6.24622ZM8.42218 6.24622C8.42218 7.07464 9.09375 7.74622 9.92218 7.74622C10.7506 7.74622 11.4222 7.07464 11.4222 6.24622C11.4222 5.41779 10.7506 4.74622 9.92218 4.74622C9.09375 4.74622 8.42218 5.41779 8.42218 6.24622ZM15.5809 18.5775L15.5769 18.5819C15.4779 18.7822 15.4222 19.0077 15.4222 19.2462C15.4222 20.0746 16.0938 20.7462 16.9222 20.7462C17.7506 20.7462 18.4222 20.0746 18.4222 19.2462C18.4222 18.4178 17.7506 17.7462 16.9222 17.7462C16.4062 17.7462 15.9511 18.0067 15.6812 18.4034C15.6618 18.462 15.6312 18.5179 15.5891 18.568C15.5864 18.5712 15.5837 18.5744 15.5809 18.5775ZM18.9222 7.74622C18.0938 7.74622 17.4222 7.07464 17.4222 6.24622C17.4222 5.41779 18.0938 4.74622 18.9222 4.74622C19.7506 4.74622 20.4222 5.41779 20.4222 6.24622C20.4222 7.07464 19.7506 7.74622 18.9222 7.74622ZM9.92218 17.7462C7.98918 17.7462 6.42218 16.1792 6.42218 14.2462C6.42218 12.3132 7.98918 10.7462 9.92218 10.7462C11.8552 10.7462 13.4222 12.3132 13.4222 14.2462C13.4222 16.1792 11.8552 17.7462 9.92218 17.7462Z" fill="white"/>
</svg>
