<svg width="35" height="35" viewBox="0 0 35 35" fill="none" xmlns="http://www.w3.org/2000/svg">
<path d="M19.1228 13.8816L17.8436 19.9216L16.5643 13.8816C16.2294 12.9884 16.8896 12.0356 17.8436 12.0356C18.7975 12.0356 19.4578 12.9884 19.1228 13.8816Z" fill="#FF0000"/>
<path d="M17.8436 19.9216C17.1177 19.9216 16.5293 20.5101 16.5293 21.2359C16.5293 21.9618 17.1177 22.5503 17.8436 22.5503C18.5695 22.5503 19.1579 21.9618 19.1579 21.2359C19.1579 20.51 18.5695 19.9216 17.8436 19.9216Z" fill="#FF0000"/>
<path fill-rule="evenodd" clip-rule="evenodd" d="M17.7904 6.77832L20.5522 8.79294L23.9707 8.78643L25.0209 12.0397L27.7904 14.0437L26.7278 17.2929L27.7904 20.5421L25.0209 22.5462L23.9707 25.7995L20.5522 25.7929L17.7904 27.8076L15.0286 25.7929L11.6101 25.7995L10.5599 22.5462L7.79041 20.5421L8.85298 17.2929L7.79041 14.0437L10.5599 12.0397L11.6101 8.78643L15.0286 8.79294L17.7904 6.77832ZM19.6976 11.4232L22.0583 11.4187L22.7835 13.6653L24.6959 15.0492L23.9622 17.2929L24.6959 19.5367L22.7835 20.9206L22.0583 23.1672L19.6976 23.1627L17.7904 24.5539L15.8832 23.1627L13.5225 23.1672L12.7973 20.9206L10.8849 19.5367L11.6186 17.2929L10.8849 15.0492L12.7973 13.6653L13.5225 11.4187L15.8832 11.4232L17.7904 10.032L19.6976 11.4232Z" fill="#FF0000"/>
</svg>
