<svg width="51" height="68" viewBox="0 0 51 68" fill="none" xmlns="http://www.w3.org/2000/svg">
<path d="M0 5.66465C3.82035e-05 4.62574 0.285848 3.60684 0.826168 2.7194C1.36649 1.83196 2.14051 1.11017 3.06357 0.632965C3.98663 0.155759 5.02318 -0.0584795 6.05984 0.0136844C7.0965 0.0858484 8.09335 0.441635 8.94135 1.04213L48.6052 29.1568C49.3419 29.6777 49.9436 30.3669 50.3602 31.1672C50.7767 31.9675 50.9961 32.8556 50.9999 33.7578C51.0038 34.6599 50.7921 35.55 50.3825 36.3538C49.9728 37.1576 49.3771 37.852 48.6448 38.3792L8.98102 66.9131C8.13486 67.5233 7.13661 67.888 6.0963 67.9672C5.056 68.0464 4.01403 67.8368 3.08524 67.3617C2.15645 66.8866 1.3769 66.1643 0.832509 65.2745C0.288122 64.3847 3.47331e-05 63.3619 0 62.3189V5.66465Z" fill="white"/>
</svg>
